<svg xmlns="http://www.w3.org/2000/svg" width="100%" height="100%" viewBox="0 0 191.005 70.001">
    <defs>
        <style>
            .headerLogo{fill:#fff}
        </style>
    </defs>
    <g id="NFCU_Logo" transform="translate(-9.4 -12.5)">
        <path id="Path_1087" d="M19.931 116.862a3.507 3.507 0 0 0-3.614-3.046c-3.1 0-4.388 2.891-4.388 5.885 0 2.943 1.291 5.885 4.388 5.885 2.22 0 3.459-1.807 3.665-4.027h2.478c-.206 3.665-2.633 6.246-6.143 6.246-4.336 0-6.917-3.665-6.917-8.053s2.581-8.053 6.917-8.053c3.252 0 5.833 1.962 6.092 5.266l-2.478-.1z" class="headerLogo" data-name="Path 1087" transform="translate(0 -47.99)"/>
        <path id="Path_1088" d="M37.6 120.71h2.168v2.168h.052a3.443 3.443 0 0 1 3.046-2.478c.516 0 .671.052.878.052v2.375a6.326 6.326 0 0 0-.981-.1c-1.6 0-2.839 1.342-2.839 3.82v5.317H37.6z" class="headerLogo" data-name="Path 1088" transform="translate(-13.642 -52.199)"/>
        <path id="Path_1089" d="M51.823 126.5c0 1.755.878 3.3 2.788 3.3a2.411 2.411 0 0 0 2.53-1.858h2.168a4.647 4.647 0 0 1-4.7 3.82c-3.252 0-5.111-2.426-5.111-5.885 0-3.149 1.962-5.885 5.059-5.885 3.3 0 5.317 3.149 4.9 6.5zm5.369-1.652a2.856 2.856 0 0 0-2.633-2.943 2.8 2.8 0 0 0-2.736 2.943z" class="headerLogo" data-name="Path 1089" transform="translate(-19.399 -52.005)"/>
        <path id="Path_1090" d="M80.476 128.232h-2.168v-1.5h-.052a3.4 3.4 0 0 1-3.256 1.81c-3.3 0-4.9-2.633-4.9-5.937 0-4.027 2.22-5.782 4.543-5.782a3.88 3.88 0 0 1 3.459 1.755h.052V112.9h2.323zm-5.162-1.652c2.065 0 2.943-2.013 2.943-3.923 0-2.478-1.084-3.923-2.891-3.923-2.168 0-2.943 2.065-2.943 4.078 0 1.858.929 3.768 2.891 3.768z" class="headerLogo" data-name="Path 1090" transform="translate(-29.365 -48.571)"/>
        <path id="Path_1091" d="M94.2 112.8h2.323v2.323H94.2zm0 4.233h2.323v11.151H94.2z" class="headerLogo" data-name="Path 1091" transform="translate(-41.024 -48.522)"/>
        <path id="Path_1092" d="M100.5 117.656h1.755V114.3h2.323v3.355h2.065v1.807h-2.065v5.938c0 1.032.1 1.549 1.084 1.549a3.344 3.344 0 0 0 .981-.1v1.91a14.581 14.581 0 0 1-1.5.1c-2.375 0-2.839-.981-2.891-2.839v-6.608H100.5v-1.755z" class="headerLogo" data-name="Path 1092" transform="translate(-44.071 -49.248)"/>
        <path id="Path_1093" d="M123.8 112.2h2.53v8.982c0 2.065.1 4.491 3.407 4.491 3.252 0 3.407-2.375 3.407-4.491V112.2h2.53v9.86c0 3.923-2.375 5.937-5.937 5.937s-5.937-1.962-5.937-5.937z" class="headerLogo" data-name="Path 1093" transform="translate(-55.343 -48.232)"/>
        <path id="Path_1094" d="M150.4 120.81h2.168v1.652l.052.052a3.67 3.67 0 0 1 3.252-2.013c2.271 0 3.717 1.291 3.717 3.82v7.64h-2.323v-7.021c-.052-1.755-.671-2.53-2.013-2.53a2.648 2.648 0 0 0-2.53 2.943v6.608H150.4V120.81z" class="headerLogo" data-name="Path 1094" transform="translate(-68.212 -52.247)"/>
        <path id="Path_1095" d="M172 112.8h2.323v2.323H172zm0 4.285h2.323v11.151H172z" class="headerLogo" data-name="Path 1095" transform="translate(-78.661 -48.522)"/>
        <path id="Path_1096" d="M179 125.885c0-3.407 1.91-5.885 5.266-5.885s5.266 2.478 5.266 5.885-1.91 5.885-5.266 5.885-5.266-2.478-5.266-5.885zm8.208 0c0-1.91-.929-3.923-2.994-3.923s-2.994 2.013-2.994 3.923c0 1.962.929 3.923 2.994 3.923s2.994-2.008 2.994-3.923z" class="headerLogo" data-name="Path 1096" transform="translate(-82.047 -52.005)"/>
        <path id="Path_1097" d="M201.552 120.81h2.168v1.652l.052.052a3.67 3.67 0 0 1 3.252-2.013c2.271 0 3.717 1.291 3.717 3.82v7.64h-2.323v-7.021c-.052-1.755-.671-2.53-2.065-2.53a2.648 2.648 0 0 0-2.53 2.943v6.608H201.5l.052-11.151z" class="headerLogo" data-name="Path 1097" transform="translate(-92.932 -52.247)"/>
        <g id="Group_201" data-name="Group 201" transform="translate(9.761 12.552)">
            <g id="Group_200" data-name="Group 200">
                <g id="Group_198" data-name="Group 198" transform="translate(0 22.766)">
                    <path id="Path_1098" d="M10.152 56.8h12.131v3.51h-7.434v4.29h6.866v3.51h-6.866v6.969H10.1l.052-18.279z" class="headerLogo" data-name="Path 1098" transform="translate(-10.1 -56.748)"/>
                    <path id="Path_1099" d="M36.1 56.8h12.854v3.51H40.8v3.82h7.69v3.51H40.8v3.923h8.363v3.562H36.1z" class="headerLogo" data-name="Path 1099" transform="translate(-22.678 -56.748)"/>
                    <path id="Path_1100" d="M64.1 56.7h7.227c2.065 0 4.749.206 6.556 1.549 2.53 1.858 3.252 4.9 3.252 7.589 0 4.078-1.239 7.072-4.7 8.518a13.7 13.7 0 0 1-5.059.723H64.1zM69 71.516h2.065c3.149 0 5.162-1.5 5.162-5.73 0-5.575-3.923-5.575-5.369-5.575H69z" class="headerLogo" data-name="Path 1100" transform="translate(-36.224 -56.7)"/>
                    <path id="Path_1101" d="M99.4 56.8h12.854v3.51H104.1v3.82h7.692v3.51H104.1v3.923h8.363v3.562H99.4z" class="headerLogo" data-name="Path 1101" transform="translate(-53.301 -56.748)"/>
                    <path id="Path_1102" d="M127.2 56.7h7.95c3.1 0 4.233.206 5.266 1.342A4.873 4.873 0 0 1 141.6 61.6a3.641 3.641 0 0 1-1.549 3.407 5.7 5.7 0 0 1-2.633.929v.1c3.3.1 3.51 1.652 3.923 4.491a30.205 30.205 0 0 0 .826 4.543h-5.162a26.6 26.6 0 0 1-.568-4.13c-.206-2.22-.31-3.046-2.426-3.046H132v7.176h-4.749L127.2 56.7zm4.749 7.9h1.751a6.058 6.058 0 0 0 1.962-.155 2.116 2.116 0 0 0 1.239-2.065c0-2.271-1.858-2.271-3.252-2.271H131.9l.052 4.491z" class="headerLogo" data-name="Path 1102" transform="translate(-66.749 -56.7)"/>
                    <path id="Path_1103" d="M163.563 56.7h5.782l6.763 18.326h-5.369l-1.187-3.665h-6.866l-1.136 3.665h-4.75zm4.9 11.305l-2.22-7.692h-.043l-2.375 7.692z" class="headerLogo" data-name="Path 1103" transform="translate(-81.069 -56.7)"/>
                    <path id="Path_1104" d="M195.2 56.7h4.853v14.713h7.692v3.614H195.2V56.7z" class="headerLogo" data-name="Path 1104" transform="translate(-99.646 -56.7)"/>
                </g>
                <g id="Group_199" data-name="Group 199" transform="translate(.052 2.478)">
                    <path id="Path_1105" d="M10.2 17.4h6.556l5.782 13.68-.052-13.68h4.181v18.378h-6.452l-5.885-14.3.052 14.3H10.2V17.4z" class="headerLogo" data-name="Path 1105" transform="translate(-10.2 -17.4)"/>
                    <path id="Path_1106" d="M51.263 17.4h5.782l6.814 18.378H58.49l-1.19-3.665h-6.863l-1.187 3.665H44.5zm4.956 11.305L54 21.014h-.052l-2.375 7.692z" class="headerLogo" data-name="Path 1106" transform="translate(-26.793 -17.4)"/>
                    <path id="Path_1107" d="M75.1 17.4h5.266l3.923 13.267 4.13-13.267h4.749l-6.3 18.378h-5.676z" class="headerLogo" data-name="Path 1107" transform="translate(-41.597 -17.4)"/>
                    <path id="Path_1108" d="M115.124 17.4l3.768 7.692 3.872-7.692h4.9l-6.711 11.873v6.5h-4.8v-6.706L109.6 17.452h5.524z" class="headerLogo" data-name="Path 1108" transform="translate(-58.287 -17.4)"/>
                </g>
                <path id="Rectangle_354" d="M0 0H108.047V4.801H0z" class="headerLogo" data-name="Rectangle 354" transform="translate(.052 43.26)"/>
                <path id="Path_1109" d="M175.772 23.286a10.677 10.677 0 0 0-9.757-10.634 5.611 5.611 0 0 0-.929-.052 4.724 4.724 0 0 0-.878.052 10.586 10.586 0 0 0-7.589 4.181l-.206.258-.206.258a10.669 10.669 0 0 0 7.95 16.571 8.389 8.389 0 0 0 1.858 0 10.677 10.677 0 0 0 9.757-10.634zm-5.782 7.9h-1.5a13.519 13.519 0 0 0 1.032-2.994H172a10.5 10.5 0 0 1-2.01 2.992zm-11.873-2.996h2.478a14.514 14.514 0 0 0 1.032 2.994h-1.5a10.5 10.5 0 0 1-2.01-2.994zm-3.046-4.543h1.394a13.9 13.9 0 0 0 .723 3.923h-1.136a9.375 9.375 0 0 1-.981-3.923zm3.149-5.524a9.058 9.058 0 0 1 1.962-2.736h1.5a15.306 15.306 0 0 0-.878 2.22l-.1.31-.1.31v.1h-2.478a.268.268 0 0 0 .094-.203zm13.78.259h-2.478a14.515 14.515 0 0 0-1.032-2.994h1.5a11.279 11.279 0 0 1 2.01 2.994zm3.046 4.594h-1.394a12.3 12.3 0 0 0-.723-3.923h1.136a8.495 8.495 0 0 1 .984 3.923zm-2.013 0h-2.943a19.048 19.048 0 0 0-.413-3.923h2.633a13.571 13.571 0 0 1 .726 3.923zm-11.667-4.853a10.458 10.458 0 0 1 1.032-2.736h2.323v2.994h-3.407c.004-.102.055-.154.055-.257zm.671-3.407h-1.084a5.741 5.741 0 0 1 1.91-1.032 4.267 4.267 0 0 0-.823 1.033zm2.684-1.394v1.445h-1.858a3 3 0 0 1 1.862-1.444zm.671 1.394v-1.393a3 3 0 0 1 1.858 1.445h-1.85zm2.271.671a12.519 12.519 0 0 1 1.136 2.994H165.4v-2.993zm-2.943 3.665v3.923h-3.97a19.44 19.44 0 0 1 .413-3.923zm0 4.594v3.923h-3.562a18.672 18.672 0 0 1-.413-3.923zm0 4.543v2.994h-2.271a12.519 12.519 0 0 1-1.136-2.994zm0 3.665V33.3a3 3 0 0 1-1.858-1.445zm.671 0h1.858A3.42 3.42 0 0 1 165.4 33.3zm0-.671V28.19h3.409a13.43 13.43 0 0 1-1.136 2.994zm0-3.665v-3.871h3.975a19.049 19.049 0 0 1-.413 3.923H165.4zm0-4.543v-3.922h3.562a18.671 18.671 0 0 1 .413 3.923zm2.684-8.26a5.989 5.989 0 0 0-.826-1.084 7.017 7.017 0 0 1 1.91 1.084zm-7.589 4.336a24.033 24.033 0 0 0-.413 3.923h-2.943a14.251 14.251 0 0 1 .723-3.923zm-4.027 3.923h-1.394a10.4 10.4 0 0 1 .935-3.921h1.136a12.27 12.27 0 0 0-.671 3.923zm.671.671h2.943a19.049 19.049 0 0 0 .413 3.923h-2.633a11.028 11.028 0 0 1-.717-3.921zm4.9 8.208a5.989 5.989 0 0 0 .826 1.084 7.017 7.017 0 0 1-1.91-1.084zm6.04 0h1.084a7.876 7.876 0 0 1-1.91 1.084 5.989 5.989 0 0 0 .836-1.082zm1.6-4.336a22.869 22.869 0 0 0 .413-3.923h2.943a13.9 13.9 0 0 1-.723 3.923zm4.027-3.872h1.403a10.172 10.172 0 0 1-.929 3.923h-1.136a16.424 16.424 0 0 0 .672-3.921zm.1-5.266h-1.032a10.441 10.441 0 0 0-1.858-2.994h.31a11.034 11.034 0 0 1 2.593 2.997zm-3.562-3.665zm-11.357.671h.31a9.339 9.339 0 0 0-1.445 2.168l-.155.31-.155.31c-.052.052-.052.155-.1.206h-1.023a8.98 8.98 0 0 1 .568-.929 15.261 15.261 0 0 1 2.013-2.062zm-2.53 12.8h1.032a10.441 10.441 0 0 0 1.858 2.994h-.31a8.971 8.971 0 0 1-2.566-2.989zm3.51 3.665zm10.376 0zm.981-.671h-.31a10.882 10.882 0 0 0 1.858-2.994h1.032a10.316 10.316 0 0 1-2.566 2.999z" class="headerLogo" data-name="Path 1109" transform="translate(-79.908 -12.6)"/>
            </g>
        </g>
        <g id="Group_202" data-name="Group 202" transform="translate(119.047 55.347)">
            <path id="Path_1110" d="M224.381 95.5a2.582 2.582 0 0 1 0 5.162 2.589 2.589 0 0 1-2.581-2.581 2.623 2.623 0 0 1 2.581-2.581zm0 .413a2.128 2.128 0 0 0-2.065 2.168 2.1 2.1 0 0 0 2.065 2.168 2.171 2.171 0 0 0 0-4.336zm-.465 3.665h-.465v-2.891a3.918 3.918 0 0 1 .826-.052 1.531 1.531 0 0 1 .878.206.7.7 0 0 1 .258.619.774.774 0 0 1-.568.723c.258.052.413.258.465.723a1.693 1.693 0 0 0 .206.723h-.465a2.507 2.507 0 0 1-.206-.723.545.545 0 0 0-.619-.516h-.31v1.187zm0-1.549h.31c.361 0 .723-.155.723-.516 0-.258-.206-.516-.723-.516h-.31z" class="headerLogo" data-name="Path 1110" transform="translate(-221.8 -95.5)"/>
        </g>
        <path id="Rectangle_355" d="M0 0H0.516V70.001H0z" class="headerLogo" data-name="Rectangle 355" transform="translate(130.404 12.5)"/>
        <g id="Group_203" data-name="Group 203" transform="translate(137.631 15.03)">
            <path id="Path_1111" d="M260.226 17.4h1.136l2.375 5.627h-1.291l-.516-1.239h-2.375l-.516 1.239H257.8zm1.291 3.252l-.723-1.807-.723 1.807z" class="headerLogo" data-name="Path 1111" transform="translate(-257.8 -17.4)"/>
            <path id="Path_1112" d="M270.8 17.4h2.581a2.282 2.282 0 0 1 1.652.568 1.8 1.8 0 0 1 .465 1.291 1.715 1.715 0 0 1-1.187 1.755l1.342 2.013h-1.445l-1.188-1.807h-.981v1.807H270.8V17.4zm2.478 2.736c.619 0 .929-.31.929-.774 0-.516-.361-.774-.981-.774h-1.239v1.6h1.291z" class="headerLogo" data-name="Path 1112" transform="translate(-264.089 -17.4)"/>
            <path id="Path_1113" d="M281.8 17.4h1.342l1.5 2.375 1.5-2.375h1.342v5.575h-1.244V19.31l-1.549 2.375h-.052l-1.549-2.375v3.614h-1.19l-.1-5.524z" class="headerLogo" data-name="Path 1113" transform="translate(-269.41 -17.4)"/>
            <path id="Path_1114" d="M296.068 20.807L293.9 17.4h1.445l1.342 2.271 1.343-2.271h1.394l-2.168 3.355v2.22h-1.239l.052-2.168z" class="headerLogo" data-name="Path 1114" transform="translate(-275.264 -17.4)"/>
            <path id="Path_1115" d="M258.8 36.5h1.342l1.5 2.375 1.5-2.375h1.342v5.575h-1.244V38.41l-1.549 2.375h-.052l-1.549-2.375v3.614h-1.19l-.1-5.524z" class="headerLogo" data-name="Path 1115" transform="translate(-258.284 -26.64)"/>
            <path id="Path_1116" d="M273.526 36.4h1.136l2.375 5.627h-1.291l-.516-1.239h-2.375l-.516 1.239H271.1zm1.291 3.3l-.723-1.807-.723 1.807z" class="headerLogo" data-name="Path 1116" transform="translate(-264.234 -26.592)"/>
            <path id="Path_1117" d="M284.1 36.5h2.581a2.282 2.282 0 0 1 1.652.568 1.8 1.8 0 0 1 .465 1.291 1.715 1.715 0 0 1-1.187 1.755l1.342 2.013h-1.445l-1.188-1.807h-.981v1.807H284.1V36.5zm2.478 2.736c.619 0 .929-.31.929-.774 0-.516-.361-.774-.981-.774h-1.239v1.6h1.291z" class="headerLogo" data-name="Path 1117" transform="translate(-270.523 -26.64)"/>
            <path id="Path_1118" d="M295.1 36.5h1.239v5.575H295.1z" class="headerLogo" data-name="Path 1118" transform="translate(-275.845 -26.64)"/>
            <path id="Path_1119" d="M300 36.5h1.136l2.633 3.459V36.5h1.239v5.575h-1.032l-2.684-3.562v3.562H300z" class="headerLogo" data-name="Path 1119" transform="translate(-278.215 -26.64)"/>
            <path id="Path_1120" d="M312 36.5h4.233v1.084h-2.994v1.136h2.633v1.08h-2.633v1.187h3.046v1.084H312z" class="headerLogo" data-name="Path 1120" transform="translate(-284.02 -26.64)"/>
            <path id="Path_1121" d="M326.2 39.191a2.823 2.823 0 0 1 2.891-2.891 2.939 2.939 0 0 1 2.22.878l-.774.929a1.954 1.954 0 0 0-1.445-.619 1.647 1.647 0 0 0-1.6 1.755 1.647 1.647 0 0 0 1.6 1.755 2.12 2.12 0 0 0 1.5-.671l.774.774a2.88 2.88 0 0 1-2.323.981 2.811 2.811 0 0 1-2.843-2.891z" class="headerLogo" data-name="Path 1121" transform="translate(-290.89 -26.543)"/>
            <path id="Path_1122" d="M337.1 39.191a3 3 0 0 1 5.988 0 3 3 0 0 1-5.988 0zm4.646 0a1.7 1.7 0 0 0-1.7-1.755 1.657 1.657 0 0 0-1.652 1.755 1.7 1.7 0 0 0 1.7 1.755 1.657 1.657 0 0 0 1.652-1.755z" class="headerLogo" data-name="Path 1122" transform="translate(-296.163 -26.543)"/>
            <path id="Path_1123" d="M350.5 36.5h2.581a2.282 2.282 0 0 1 1.652.568 1.8 1.8 0 0 1 .465 1.291 1.715 1.715 0 0 1-1.187 1.755l1.342 2.013h-1.445l-1.188-1.807h-.981v1.807H350.5V36.5zm2.478 2.736c.619 0 .929-.31.929-.774 0-.516-.361-.774-.981-.774h-1.239v1.6h1.291z" class="headerLogo" data-name="Path 1123" transform="translate(-302.646 -26.64)"/>
            <path id="Path_1124" d="M361.452 36.5h2.271a1.889 1.889 0 0 1 2.117 1.962 2.015 2.015 0 0 1-2.271 1.962h-.929v1.652h-1.24l.052-5.575zm2.22 2.839c.619 0 .981-.361.981-.826 0-.568-.361-.826-.981-.826h-.929v1.7l.929-.052z" class="headerLogo" data-name="Path 1124" transform="translate(-307.919 -26.64)"/>
            <path id="Path_1125" d="M370.9 41.253l.723-.878a2.592 2.592 0 0 0 1.652.671c.516 0 .826-.206.826-.516 0-.31-.206-.465-1.136-.723-1.136-.31-1.858-.619-1.858-1.7a1.759 1.759 0 0 1 1.962-1.7 3.141 3.141 0 0 1 2.065.723l-.619.929a2.574 2.574 0 0 0-1.445-.568c-.465 0-.723.206-.723.465 0 .361.258.465 1.187.723 1.136.31 1.755.723 1.755 1.652 0 1.084-.826 1.755-2.065 1.755a3.306 3.306 0 0 1-2.324-.833z" class="headerLogo" data-name="Path 1125" transform="translate(-312.514 -26.592)"/>
            <path id="Path_1126" d="M258.8 55.5h1.136l2.633 3.459V55.5h1.239v5.575h-1.032l-2.684-3.562v3.562h-1.239V55.5z" class="headerLogo" data-name="Path 1126" transform="translate(-258.284 -35.832)"/>
            <path id="Path_1127" d="M272.226 55.5h1.136l2.375 5.627h-1.291l-.516-1.239h-2.375l-.516 1.239H269.8zm1.342 3.252l-.723-1.807-.723 1.807z" class="headerLogo" data-name="Path 1127" transform="translate(-263.605 -35.832)"/>
            <path id="Path_1128" d="M280.4 55.5h1.342l1.445 3.923 1.445-3.923h1.342l-2.274 5.627h-1.08z" class="headerLogo" data-name="Path 1128" transform="translate(-268.733 -35.832)"/>
            <path id="Path_1129" d="M293.368 58.907L291.2 55.5h1.445l1.342 2.271 1.343-2.271h1.394l-2.168 3.355v2.22h-1.239l.052-2.168z" class="headerLogo" data-name="Path 1129" transform="translate(-273.958 -35.832)"/>
            <path id="Path_1130" d="M260.226 74.5h1.136l2.375 5.627h-1.291l-.516-1.239h-2.375l-.516 1.239H257.8zm1.291 3.3l-.723-1.8-.723 1.807z" class="headerLogo" data-name="Path 1130" transform="translate(-257.8 -45.023)"/>
            <path id="Path_1131" d="M270.9 74.6h1.239v5.575H270.9z" class="headerLogo" data-name="Path 1131" transform="translate(-264.137 -45.072)"/>
            <path id="Path_1132" d="M275.8 74.6h2.581a2.282 2.282 0 0 1 1.652.568 1.8 1.8 0 0 1 .465 1.291 1.715 1.715 0 0 1-1.187 1.755l1.342 2.013h-1.445l-1.188-1.807h-.981v1.807H275.8V74.6zm2.478 2.736c.619 0 .929-.31.929-.774 0-.516-.361-.774-.981-.774h-1.239v1.6h1.291z" class="headerLogo" data-name="Path 1132" transform="translate(-266.508 -45.072)"/>
            <path id="Path_1133" d="M291.152 74.6h4.233v1.136h-3.046v1.187h2.684v1.136h-2.684v2.168H291.1l.052-5.627z" class="headerLogo" data-name="Path 1133" transform="translate(-273.91 -45.072)"/>
            <path id="Path_1134" d="M300.7 77.291a3 3 0 0 1 5.988 0 3 3 0 0 1-5.988 0zm4.646 0a1.7 1.7 0 0 0-1.7-1.755 1.657 1.657 0 0 0-1.652 1.755 1.7 1.7 0 0 0 1.7 1.755 1.657 1.657 0 0 0 1.652-1.755z" class="headerLogo" data-name="Path 1134" transform="translate(-278.554 -44.975)"/>
            <path id="Path_1135" d="M314.1 74.6h2.581a2.282 2.282 0 0 1 1.652.568 1.8 1.8 0 0 1 .465 1.291 1.715 1.715 0 0 1-1.187 1.755l1.342 2.013h-1.445l-1.188-1.807h-.981v1.807H314.1V74.6zm2.478 2.736c.619 0 .929-.31.929-.774 0-.516-.361-.774-.981-.774h-1.239v1.6h1.291z" class="headerLogo" data-name="Path 1135" transform="translate(-285.036 -45.072)"/>
            <path id="Path_1136" d="M324.6 77.291a2.823 2.823 0 0 1 2.891-2.891 2.939 2.939 0 0 1 2.22.878l-.774.929a1.953 1.953 0 0 0-1.445-.619 1.647 1.647 0 0 0-1.6 1.755 1.647 1.647 0 0 0 1.6 1.755 2.12 2.12 0 0 0 1.5-.671l.774.774a2.88 2.88 0 0 1-2.323.981 2.843 2.843 0 0 1-2.843-2.891z" class="headerLogo" data-name="Path 1136" transform="translate(-290.116 -44.975)"/>
            <path id="Path_1137" d="M336.3 74.6h4.233v1.084h-2.994v1.136h2.633v1.08h-2.633v1.187h3.046v1.084h-4.233V74.6z" class="headerLogo" data-name="Path 1137" transform="translate(-295.776 -45.072)"/>
            <path id="Path_1138" d="M258.3 96.391a2.823 2.823 0 0 1 2.891-2.891 2.939 2.939 0 0 1 2.22.878l-.774.929a1.953 1.953 0 0 0-1.445-.619 1.647 1.647 0 0 0-1.6 1.755 1.647 1.647 0 0 0 1.6 1.755 2.12 2.12 0 0 0 1.5-.671l.774.774a2.88 2.88 0 0 1-2.323.981 2.843 2.843 0 0 1-2.843-2.891z" class="headerLogo" data-name="Path 1138" transform="translate(-258.042 -54.215)"/>
            <path id="Path_1139" d="M269.2 96.391a3 3 0 0 1 5.988 0 3 3 0 0 1-5.988 0zm4.7 0a1.7 1.7 0 0 0-1.7-1.755 1.657 1.657 0 0 0-1.652 1.755 1.7 1.7 0 0 0 1.7 1.755 1.72 1.72 0 0 0 1.652-1.755z" class="headerLogo" data-name="Path 1139" transform="translate(-263.315 -54.215)"/>
            <path id="Path_1140" d="M283.426 93.6h1.136l2.375 5.627h-1.291l-.516-1.239h-2.375l-.516 1.239H281zm1.291 3.252l-.723-1.807-.723 1.807z" class="headerLogo" data-name="Path 1140" transform="translate(-269.023 -54.263)"/>
            <path id="Path_1141" d="M293.1 98.353l.723-.878a2.592 2.592 0 0 0 1.652.671c.516 0 .826-.206.826-.516 0-.31-.206-.465-1.136-.723-1.136-.31-1.858-.619-1.858-1.7a1.759 1.759 0 0 1 1.962-1.7 3.141 3.141 0 0 1 2.065.723l-.619.929a2.574 2.574 0 0 0-1.445-.568c-.465 0-.723.206-.723.465 0 .361.258.465 1.187.723 1.136.31 1.755.723 1.755 1.652 0 1.084-.826 1.755-2.065 1.755a3.088 3.088 0 0 1-2.324-.833z" class="headerLogo" data-name="Path 1141" transform="translate(-274.877 -54.215)"/>
            <path id="Path_1142" d="M304.2 94.736h-1.7V93.6h4.646v1.136h-1.7v4.44H304.2v-4.44z" class="headerLogo" data-name="Path 1142" transform="translate(-279.425 -54.263)"/>
            <path id="Path_1143" d="M317.1 96.391a2.866 2.866 0 0 1 2.943-2.891 3.058 3.058 0 0 1 2.22.774l-.774.929a2.028 2.028 0 0 0-1.445-.568 1.68 1.68 0 0 0-1.6 1.755 1.668 1.668 0 0 0 1.7 1.755 1.963 1.963 0 0 0 1.136-.31v-.774h-1.239v-1.083h2.426V98.4a3.669 3.669 0 0 1-2.375.878 2.82 2.82 0 0 1-2.992-2.887z" class="headerLogo" data-name="Path 1143" transform="translate(-286.488 -54.215)"/>
            <path id="Path_1144" d="M329.3 96.8v-3.2h1.239v3.149c0 .929.465 1.394 1.187 1.394s1.187-.465 1.187-1.342V93.6h1.239v3.149a2.248 2.248 0 0 1-2.478 2.53A2.2 2.2 0 0 1 329.3 96.8z" class="headerLogo" data-name="Path 1144" transform="translate(-292.39 -54.263)"/>
            <path id="Path_1145" d="M342.026 93.6h1.136l2.375 5.627h-1.291l-.516-1.239h-2.375l-.516 1.239H339.6zm1.291 3.252l-.723-1.807-.723 1.807z" class="headerLogo" data-name="Path 1145" transform="translate(-297.372 -54.263)"/>
            <path id="Path_1146" d="M352.6 93.6h2.581a2.282 2.282 0 0 1 1.652.568 1.8 1.8 0 0 1 .465 1.291 1.715 1.715 0 0 1-1.187 1.755l1.342 2.013h-1.445l-1.188-1.807h-.981v1.807H352.6V93.6zm2.478 2.736c.62 0 .929-.31.929-.774 0-.516-.361-.774-.981-.774h-1.187v1.6h1.239z" class="headerLogo" data-name="Path 1146" transform="translate(-303.661 -54.263)"/>
            <path id="Path_1147" d="M363.6 93.6h2.168a2.8 2.8 0 0 1 2.994 2.788 2.829 2.829 0 0 1-2.994 2.788H363.6zm1.239 1.136v3.355h.929a1.586 1.586 0 0 0 1.7-1.652 1.626 1.626 0 0 0-1.7-1.7z" class="headerLogo" data-name="Path 1147" transform="translate(-308.983 -54.263)"/>
            <path id="Path_1148" d="M258.1 117.453l.723-.878a2.592 2.592 0 0 0 1.652.671c.516 0 .826-.206.826-.516 0-.31-.206-.465-1.136-.723-1.136-.31-1.858-.619-1.858-1.7a1.759 1.759 0 0 1 1.962-1.7 3.141 3.141 0 0 1 2.065.723l-.619.929a2.574 2.574 0 0 0-1.445-.568c-.465 0-.723.206-.723.465 0 .361.258.465 1.187.723 1.136.31 1.755.723 1.755 1.652 0 1.084-.826 1.755-2.065 1.755a3.306 3.306 0 0 1-2.324-.833z" class="headerLogo" data-name="Path 1148" transform="translate(-257.945 -63.455)"/>
            <path id="Path_1149" d="M268.452 112.7h2.271a1.889 1.889 0 0 1 2.117 1.962 2.015 2.015 0 0 1-2.271 1.962h-.929v1.652h-1.24l.052-5.575zm2.22 2.788c.619 0 .981-.361.981-.826 0-.568-.361-.826-.981-.826h-.929v1.7l.929-.052z" class="headerLogo" data-name="Path 1149" transform="translate(-262.928 -63.503)"/>
            <path id="Path_1150" d="M279.026 112.6h1.136l2.375 5.627h-1.291l-.516-1.239h-2.375l-.516 1.239H276.6zm1.291 3.3l-.723-1.807-.723 1.807z" class="headerLogo" data-name="Path 1150" transform="translate(-266.895 -63.455)"/>
            <path id="Path_1151" d="M288.4 115.391a2.823 2.823 0 0 1 2.891-2.891 2.939 2.939 0 0 1 2.22.878l-.774.929a1.953 1.953 0 0 0-1.445-.619 1.647 1.647 0 0 0-1.6 1.755 1.647 1.647 0 0 0 1.6 1.755 2.12 2.12 0 0 0 1.5-.671l.774.774a2.88 2.88 0 0 1-2.323.981 2.843 2.843 0 0 1-2.843-2.891z" class="headerLogo" data-name="Path 1151" transform="translate(-272.603 -63.407)"/>
            <path id="Path_1152" d="M300.1 112.7h4.233v1.084h-2.994v1.136h2.633V116h-2.633v1.187h3.046v1.084h-4.233V112.7z" class="headerLogo" data-name="Path 1152" transform="translate(-278.264 -63.503)"/>
            <path id="Path_1153" d="M314.652 112.7h4.233v1.136h-3.046v1.187h2.684v1.136h-2.684v2.168H314.6l.052-5.627z" class="headerLogo" data-name="Path 1153" transform="translate(-285.278 -63.503)"/>
            <path id="Path_1154" d="M324.1 115.391a3 3 0 0 1 5.988 0 3 3 0 0 1-5.988 0zm4.7 0a1.7 1.7 0 0 0-1.7-1.755 1.657 1.657 0 0 0-1.652 1.755 1.679 1.679 0 1 0 3.355 0z" class="headerLogo" data-name="Path 1154" transform="translate(-289.874 -63.407)"/>
            <path id="Path_1155" d="M337.6 112.7h2.581a2.282 2.282 0 0 1 1.652.568 1.8 1.8 0 0 1 .465 1.291 1.715 1.715 0 0 1-1.187 1.755l1.342 2.013h-1.445l-1.187-1.807h-.981v1.807h-1.24V112.7zm2.478 2.736c.619 0 .929-.31.929-.774 0-.516-.361-.774-.981-.774h-1.187v1.6h1.239z" class="headerLogo" data-name="Path 1155" transform="translate(-296.405 -63.503)"/>
            <path id="Path_1156" d="M348.1 115.391a2.823 2.823 0 0 1 2.891-2.891 2.939 2.939 0 0 1 2.22.878l-.774.929a1.953 1.953 0 0 0-1.445-.619 1.647 1.647 0 0 0-1.6 1.755 1.647 1.647 0 0 0 1.6 1.755 2.12 2.12 0 0 0 1.5-.671l.774.774a2.88 2.88 0 0 1-2.323.981 2.843 2.843 0 0 1-2.843-2.891z" class="headerLogo" data-name="Path 1156" transform="translate(-301.484 -63.407)"/>
            <path id="Path_1157" d="M359.8 112.7h4.233v1.084h-2.994v1.136h2.633V116h-2.633v1.187h3.046v1.084h-4.233V112.7z" class="headerLogo" data-name="Path 1157" transform="translate(-307.145 -63.503)"/>
            <path id="Path_1158" d="M257.9 131.7h1.342l1.445 3.923 1.445-3.923h1.342l-2.271 5.627h-1.083z" class="headerLogo" data-name="Path 1158" transform="translate(-257.848 -72.695)"/>
            <path id="Path_1159" d="M270.2 131.7h4.233v1.084h-2.994v1.136h2.633V135h-2.633v1.187h3.046v1.084h-4.233V131.7z" class="headerLogo" data-name="Path 1159" transform="translate(-263.799 -72.695)"/>
            <path id="Path_1160" d="M281.3 132.836h-1.7V131.7h4.646v1.136h-1.7v4.44H281.3v-4.44z" class="headerLogo" data-name="Path 1160" transform="translate(-268.346 -72.695)"/>
            <path id="Path_1161" d="M290.2 131.7h4.233v1.084h-2.994v1.136h2.633V135h-2.633v1.187h3.046v1.084h-4.233V131.7z" class="headerLogo" data-name="Path 1161" transform="translate(-273.474 -72.695)"/>
            <path id="Path_1162" d="M300.4 131.7h2.581a2.282 2.282 0 0 1 1.652.568 1.8 1.8 0 0 1 .465 1.291 1.715 1.715 0 0 1-1.187 1.755l1.342 2.013h-1.445l-1.187-1.807h-.981v1.807h-1.24V131.7zm2.478 2.736c.619 0 .929-.31.929-.774 0-.516-.361-.774-.981-.774h-1.239v1.6h1.291z" class="headerLogo" data-name="Path 1162" transform="translate(-278.409 -72.695)"/>
            <path id="Path_1163" d="M312.726 131.7h1.136l2.375 5.627h-1.291l-.516-1.239h-2.375l-.516 1.239H310.3zm1.342 3.252l-.723-1.807-.723 1.807z" class="headerLogo" data-name="Path 1163" transform="translate(-283.198 -72.695)"/>
            <path id="Path_1164" d="M323.4 131.7h1.136l2.633 3.459V131.7h1.239v5.575h-1.032l-2.684-3.562v3.562h-1.239V131.7z" class="headerLogo" data-name="Path 1164" transform="translate(-289.535 -72.695)"/>
            <path id="Path_1165" d="M334.6 136.453l.723-.878a2.592 2.592 0 0 0 1.652.671c.516 0 .826-.206.826-.516 0-.31-.206-.465-1.136-.723-1.136-.31-1.858-.619-1.858-1.7a1.759 1.759 0 0 1 1.962-1.7 3.141 3.141 0 0 1 2.065.723l-.619.929a2.574 2.574 0 0 0-1.445-.568c-.465 0-.723.206-.723.465 0 .361.258.465 1.187.723 1.136.31 1.755.723 1.755 1.652 0 1.084-.826 1.755-2.065 1.755a3.159 3.159 0 0 1-2.324-.833z" class="headerLogo" data-name="Path 1165" transform="translate(-294.954 -72.647)"/>
        </g>
    </g>
</svg>
